<svg width="24" height="24" viewBox="0 0 24 24" fill="none" xmlns="http://www.w3.org/2000/svg">
    <path d="M13.44 11.01c.09.09.18.09.36.09h6.3c.54 0 .9-.36.9-.9 0-.18 0-.27-.09-.36l-3.15-6.3c-.27-.45-.81-.63-1.26-.36-.09.09-.27.18-.36.36l-3.15 6.3c-.18.36 0 .9.45 1.17zm3.51-5.13 1.71 3.42h-3.42l1.71-3.42zM7.05 3C4.8 3 3 4.8 3 7.05s1.8 4.05 4.05 4.05 4.05-1.8 4.05-4.05S9.3 3 7.05 3zm0 6.3c-1.26 0-2.25-.99-2.25-2.25S5.79 4.8 7.05 4.8s2.25.99 2.25 2.25S8.31 9.3 7.05 9.3zm3.78 3.87a.87.87 0 0 0-1.26 0l-2.52 2.52-2.52-2.52a.87.87 0 0 0-1.26 0 .87.87 0 0 0 0 1.26l2.52 2.52-2.52 2.52a.87.87 0 0 0 0 1.26c.36.36.9.36 1.26 0l2.52-2.52 2.52 2.52c.36.36.9.36 1.26 0a.87.87 0 0 0 0-1.26l-2.52-2.52 2.52-2.52a.87.87 0 0 0 0-1.26zm9.27-.27h-6.3c-.54 0-.9.36-.9.9v6.3c0 .54.36.9.9.9h6.3c.54 0 .9-.36.9-.9v-6.3c0-.54-.36-.9-.9-.9zm-.9 6.3h-4.5v-4.5h4.5v4.5z" fill="#fff"/>
</svg>
